<svg xmlns="http://www.w3.org/2000/svg" viewBox="0 0 64 64">
  <defs>
    <linearGradient id="g" x1="8" y1="8" x2="56" y2="56" gradientUnits="userSpaceOnUse">
      <stop offset="0" stop-color="#2563eb"/>
      <stop offset="1" stop-color="#0f172a"/>
    </linearGradient>
  </defs>
  <rect width="64" height="64" rx="16" fill="url(#g)"/>
  <path d="M21.5 43.5c-6 0-10.5-4.7-10.5-11.5s4.5-11.5 10.7-11.5c4 0 7.1 1.7 8.9 4.7l-4.2 2.4c-1-1.7-2.6-2.6-4.6-2.6-3.5 0-5.9 2.7-5.9 7s2.4 7 5.9 7c2.1 0 3.7-.9 4.7-2.7l4.2 2.4c-1.8 3-5 4.8-9.2 4.8Z" fill="#fff"/>
  <path d="M43.3 43.5c-6 0-10.5-4.7-10.5-11.5s4.5-11.5 10.7-11.5c4 0 7.1 1.7 8.9 4.7l-4.2 2.4c-1-1.7-2.6-2.6-4.6-2.6-3.5 0-5.9 2.7-5.9 7s2.4 7 5.9 7c2.1 0 3.7-.9 4.7-2.7l4.2 2.4c-1.8 3-5 4.8-9.2 4.8Z" fill="#bfdbfe"/>
</svg>
